<svg width="100" height="100" viewBox="0 0 100 100" xmlns="http://www.w3.org/2000/svg">
  <defs>
    <linearGradient id="dropGradient" x1="0%" y1="0%" x2="100%" y2="100%">
      <stop offset="0%" stop-color="#1a75ff" />
      <stop offset="100%" stop-color="#0044cc" />
    </linearGradient>
    <linearGradient id="earthGradient" x1="0%" y1="0%" x2="100%" y2="100%">
      <stop offset="0%" stop-color="#4CAF50" />
      <stop offset="100%" stop-color="#2E7D32" />
    </linearGradient>
  </defs>
  
  <!-- Water drop shape -->
  <path d="M50,10 C70,10 90,40 90,70 C90,85 70,90 50,90 C30,90 10,85 10,70 C10,40 30,10 50,10 Z" 
        fill="url(#dropGradient)" />
  
  <!-- Earth inside drop -->
  <circle cx="50" cy="55" r="30" fill="url(#earthGradient)" />
  
  <!-- Continents -->
  <path d="M40,40 C45,38 50,42 55,40 C60,38 65,45 63,50 C61,55 55,53 50,55 C45,57 40,52 40,48 Z" 
        fill="#8BC34A" />
  <path d="M30,60 C35,55 45,65 50,60 C55,55 60,65 55,70 C50,75 40,70 35,65 Z" 
        fill="#8BC34A" />
  <path d="M60,45 C65,43 70,50 65,55 C60,60 55,55 60,45 Z" 
        fill="#8BC34A" />
</svg>